<svg width="52" height="52" viewBox="0 0 52 52" fill="none" xmlns="http://www.w3.org/2000/svg">
<path fill-rule="evenodd" clip-rule="evenodd" d="M15.1663 15.1673C15.1663 9.18298 20.0153 4.33398 25.9997 4.33398C31.984 4.33398 36.833 9.18298 36.833 15.1673V21.6673H37.6997C39.6063 21.6673 41.1663 23.2273 41.1663 25.134V40.3007C41.1663 43.1607 38.8263 45.5007 35.9663 45.5007H16.033C13.173 45.5007 10.833 43.1607 10.833 40.3007V25.134C10.833 23.2273 12.393 21.6673 14.2997 21.6673H15.1663V15.1673ZM32.4997 15.1673V21.6673H19.4997V15.1673C19.4997 11.575 22.4073 8.66732 25.9997 8.66732C29.592 8.66732 32.4997 11.575 32.4997 15.1673ZM25.9997 26.5423C25.1381 26.5414 24.3019 26.834 23.6288 27.3719C22.9557 27.9097 22.4858 28.6608 22.2966 29.5013C22.1074 30.3419 22.2101 31.2219 22.5879 31.9963C22.9656 32.7706 23.5958 33.3933 24.3747 33.7617V39.0007C24.3747 39.4316 24.5459 39.845 24.8506 40.1497C25.1554 40.4544 25.5687 40.6257 25.9997 40.6257C26.4307 40.6257 26.844 40.4544 27.1487 40.1497C27.4535 39.845 27.6247 39.4316 27.6247 39.0007V33.7617C28.4036 33.3933 29.0338 32.7706 29.4115 31.9963C29.7892 31.2219 29.8919 30.3419 29.7027 29.5013C29.5135 28.6608 29.0437 27.9097 28.3706 27.3719C27.6975 26.834 26.8613 26.5414 25.9997 26.5423Z" fill="black"/>
</svg>
