<svg width="73" height="54" viewBox="0 0 73 54" fill="none" xmlns="http://www.w3.org/2000/svg">
<path fill-rule="evenodd" clip-rule="evenodd" d="M35.6499 13.788C34.2871 13.9297 32.9923 14.4547 31.9155 15.302C30.8388 16.1494 30.0241 17.2845 29.566 18.5759C29.1079 19.8672 29.0251 21.2619 29.3271 22.5984C29.6292 23.9349 30.3037 25.1585 31.2726 26.1274C32.2414 27.0962 33.465 27.7708 34.8015 28.0728C36.138 28.3748 37.5327 28.292 38.824 27.8339C40.1154 27.3758 41.2505 26.5611 42.0979 25.4844C42.9453 24.4077 43.4702 23.1128 43.6119 21.75H36.3999C36.201 21.75 36.0102 21.671 35.8696 21.5303C35.7289 21.3897 35.6499 21.1989 35.6499 21V13.788ZM27.6499 21C27.6499 18.6794 28.5718 16.4538 30.2127 14.8128C31.8537 13.1719 34.0793 12.25 36.3999 12.25C36.5988 12.25 36.7896 12.329 36.9302 12.4697C37.0709 12.6103 37.1499 12.8011 37.1499 13V20.25H44.3999C44.5988 20.25 44.7896 20.329 44.9302 20.4697C45.0709 20.6103 45.1499 20.8011 45.1499 21C45.1499 23.3206 44.228 25.5462 42.5871 27.1872C40.9461 28.8281 38.7205 29.75 36.3999 29.75C34.0793 29.75 31.8537 28.8281 30.2127 27.1872C28.5718 25.5462 27.6499 23.3206 27.6499 21Z" fill="black"/>
<path fill-rule="evenodd" clip-rule="evenodd" d="M39.8999 12.6736V17.4996H44.7259C44.4469 16.3274 43.8481 15.2556 42.996 14.4035C42.144 13.5514 41.0722 12.9526 39.8999 12.6736ZM39.3979 11.0616C43.0179 11.5116 45.8879 14.3816 46.3379 18.0016C46.4069 18.5496 45.9519 18.9996 45.3999 18.9996H38.8999C38.7673 18.9996 38.6401 18.947 38.5463 18.8532C38.4526 18.7594 38.3999 18.6322 38.3999 18.4996V11.9996C38.3999 11.4476 38.8499 10.9926 39.3979 11.0616Z" fill="black"/>
<path d="M18.148 43V35.9541H19.2418V43H18.148ZM20.8873 43V37.6973H21.9469V38.498H22.0299C22.1601 38.2148 22.3521 37.9935 22.6061 37.834C22.86 37.6745 23.1806 37.5947 23.568 37.5947C24.1637 37.5947 24.6194 37.7656 24.9352 38.1074C25.2509 38.4492 25.4088 38.9359 25.4088 39.5674V43H24.3443V39.8164C24.3443 39.3737 24.2516 39.0449 24.066 38.8301C23.8837 38.612 23.5973 38.5029 23.2066 38.5029C22.9495 38.5029 22.7265 38.5599 22.5377 38.6738C22.3489 38.7845 22.2024 38.944 22.0982 39.1523C21.9973 39.3574 21.9469 39.6032 21.9469 39.8896V43H20.8873ZM28.8121 43.1025C28.3857 43.1025 28.0146 43.0407 27.6988 42.917C27.3831 42.79 27.1324 42.6159 26.9469 42.3945C26.7613 42.1699 26.6523 41.9095 26.6197 41.6133V41.6035H27.6842V41.6133C27.7525 41.8118 27.8827 41.973 28.0748 42.0967C28.2669 42.2204 28.5208 42.2822 28.8365 42.2822C29.0546 42.2822 29.2451 42.2513 29.4078 42.1895C29.5738 42.1276 29.704 42.0413 29.7984 41.9307C29.8928 41.82 29.94 41.693 29.94 41.5498V41.54C29.94 41.374 29.8733 41.234 29.7398 41.1201C29.6064 41.0062 29.3867 40.9134 29.0807 40.8418L28.2311 40.6465C27.899 40.5716 27.624 40.4691 27.4059 40.3389C27.1878 40.2087 27.0266 40.0492 26.9225 39.8604C26.8183 39.6683 26.7662 39.4437 26.7662 39.1865V39.1816C26.7662 38.8724 26.8541 38.599 27.0299 38.3613C27.2057 38.1204 27.4482 37.9333 27.7574 37.7998C28.0699 37.6631 28.4264 37.5947 28.8268 37.5947C29.2304 37.5947 29.582 37.6582 29.8814 37.7852C30.1842 37.9089 30.4234 38.0814 30.5992 38.3027C30.775 38.5208 30.8792 38.7747 30.9117 39.0645V39.0693H29.8961V39.0596C29.8473 38.874 29.7301 38.7194 29.5445 38.5957C29.3622 38.472 29.1214 38.4102 28.8219 38.4102C28.6298 38.4102 28.4589 38.4411 28.3092 38.5029C28.1594 38.5615 28.0406 38.6445 27.9527 38.752C27.8681 38.8561 27.8258 38.9798 27.8258 39.123V39.1328C27.8258 39.2435 27.8535 39.3411 27.9088 39.4258C27.9674 39.5072 28.0585 39.5804 28.1822 39.6455C28.3059 39.7074 28.4654 39.7627 28.6607 39.8115L29.5055 40.002C30.0133 40.1224 30.3909 40.2965 30.6383 40.5244C30.8889 40.7523 31.0143 41.0583 31.0143 41.4424V41.4521C31.0143 41.7777 30.9182 42.0658 30.7262 42.3164C30.5341 42.5638 30.2721 42.7575 29.94 42.8975C29.6113 43.0342 29.2353 43.1025 28.8121 43.1025ZM32.2887 43V37.6973H33.3531V43H32.2887ZM32.8258 36.75C32.6435 36.75 32.4872 36.6849 32.357 36.5547C32.2268 36.4245 32.1617 36.2682 32.1617 36.0859C32.1617 35.9036 32.2268 35.749 32.357 35.6221C32.4872 35.4919 32.6435 35.4268 32.8258 35.4268C33.0081 35.4268 33.1643 35.4919 33.2945 35.6221C33.4247 35.749 33.4898 35.9036 33.4898 36.0859C33.4898 36.2682 33.4247 36.4245 33.2945 36.5547C33.1643 36.6849 33.0081 36.75 32.8258 36.75ZM37.1324 44.8701C36.6832 44.8701 36.2926 44.8083 35.9605 44.6846C35.6318 44.5609 35.3714 44.3883 35.1793 44.167C34.9872 43.9456 34.8701 43.6885 34.8277 43.3955L34.8326 43.3857H35.9068L35.9117 43.3955C35.9573 43.5778 36.0859 43.7275 36.2975 43.8447C36.5091 43.9619 36.7923 44.0205 37.1471 44.0205C37.5833 44.0205 37.9234 43.9212 38.1676 43.7227C38.415 43.5241 38.5387 43.2458 38.5387 42.8877V41.8477H38.4557C38.3515 42.0365 38.218 42.1992 38.0553 42.3359C37.8925 42.4694 37.707 42.5703 37.4986 42.6387C37.2903 42.707 37.0641 42.7412 36.8199 42.7412C36.3707 42.7412 35.9801 42.6338 35.648 42.4189C35.3193 42.2008 35.0654 41.9014 34.8863 41.5205C34.7105 41.1364 34.6227 40.6953 34.6227 40.1973V40.1875C34.6227 39.6829 34.7122 39.237 34.8912 38.8496C35.0702 38.459 35.3258 38.1546 35.6578 37.9365C35.9898 37.7152 36.3854 37.6045 36.8443 37.6045C37.0917 37.6045 37.318 37.6436 37.523 37.7217C37.7314 37.7998 37.9153 37.9105 38.0748 38.0537C38.2343 38.1969 38.3661 38.3678 38.4703 38.5664H38.5338V37.6973H39.5934V42.8926C39.5934 43.293 39.4924 43.6413 39.2906 43.9375C39.0921 44.2337 38.8089 44.4632 38.441 44.626C38.0732 44.7887 37.637 44.8701 37.1324 44.8701ZM37.1178 41.8623C37.4173 41.8623 37.6744 41.7923 37.8893 41.6523C38.1041 41.5091 38.2685 41.3122 38.3824 41.0615C38.4996 40.8109 38.5582 40.5212 38.5582 40.1924V40.1826C38.5582 39.8571 38.4996 39.5674 38.3824 39.3135C38.2685 39.0596 38.1041 38.861 37.8893 38.7178C37.6744 38.5745 37.4173 38.5029 37.1178 38.5029C36.8183 38.5029 36.5628 38.5745 36.3512 38.7178C36.1428 38.861 35.9833 39.0596 35.8727 39.3135C35.762 39.5641 35.7066 39.8538 35.7066 40.1826V40.1924C35.7066 40.5212 35.762 40.8109 35.8727 41.0615C35.9833 41.3122 36.1428 41.5091 36.3512 41.6523C36.5628 41.7923 36.8183 41.8623 37.1178 41.8623ZM41.1705 43V35.6172H42.2301V38.498H42.3131C42.4433 38.2148 42.6354 37.9935 42.8893 37.834C43.1432 37.6745 43.4638 37.5947 43.8512 37.5947C44.2451 37.5947 44.5787 37.6712 44.8521 37.8242C45.1256 37.9772 45.3339 38.2018 45.4771 38.498C45.6204 38.791 45.692 39.1475 45.692 39.5674V43H44.6275V39.8164C44.6275 39.3737 44.5348 39.0449 44.3492 38.8301C44.1669 38.612 43.8805 38.5029 43.4898 38.5029C43.2327 38.5029 43.0097 38.5599 42.8209 38.6738C42.6321 38.7845 42.4856 38.944 42.3814 39.1523C42.2805 39.3574 42.2301 39.6032 42.2301 39.8896V43H41.1705ZM49.1686 43.0342C48.5891 43.0342 48.1692 42.9235 47.9088 42.7021C47.6516 42.4775 47.523 42.1113 47.523 41.6035V38.5322H46.693V37.6973H47.523V36.3594H48.607V37.6973H49.7447V38.5322H48.607V41.3447C48.607 41.6312 48.664 41.8379 48.7779 41.9648C48.8919 42.0885 49.0807 42.1504 49.3443 42.1504C49.4225 42.1504 49.4892 42.1488 49.5445 42.1455C49.6031 42.1423 49.6699 42.1374 49.7447 42.1309V42.9805C49.6601 42.9935 49.5689 43.0049 49.4713 43.0146C49.3736 43.0277 49.2727 43.0342 49.1686 43.0342ZM52.8355 43.1025C52.4091 43.1025 52.038 43.0407 51.7223 42.917C51.4065 42.79 51.1559 42.6159 50.9703 42.3945C50.7848 42.1699 50.6757 41.9095 50.6432 41.6133V41.6035H51.7076V41.6133C51.776 41.8118 51.9062 41.973 52.0982 42.0967C52.2903 42.2204 52.5442 42.2822 52.86 42.2822C53.0781 42.2822 53.2685 42.2513 53.4313 42.1895C53.5973 42.1276 53.7275 42.0413 53.8219 41.9307C53.9163 41.82 53.9635 41.693 53.9635 41.5498V41.54C53.9635 41.374 53.8967 41.234 53.7633 41.1201C53.6298 41.0062 53.4101 40.9134 53.1041 40.8418L52.2545 40.6465C51.9225 40.5716 51.6474 40.4691 51.4293 40.3389C51.2112 40.2087 51.0501 40.0492 50.9459 39.8604C50.8417 39.6683 50.7896 39.4437 50.7896 39.1865V39.1816C50.7896 38.8724 50.8775 38.599 51.0533 38.3613C51.2291 38.1204 51.4716 37.9333 51.7809 37.7998C52.0934 37.6631 52.4498 37.5947 52.8502 37.5947C53.2538 37.5947 53.6054 37.6582 53.9049 37.7852C54.2076 37.9089 54.4469 38.0814 54.6227 38.3027C54.7984 38.5208 54.9026 38.7747 54.9352 39.0645V39.0693H53.9195V39.0596C53.8707 38.874 53.7535 38.7194 53.568 38.5957C53.3857 38.472 53.1448 38.4102 52.8453 38.4102C52.6533 38.4102 52.4824 38.4411 52.3326 38.5029C52.1829 38.5615 52.0641 38.6445 51.9762 38.752C51.8915 38.8561 51.8492 38.9798 51.8492 39.123V39.1328C51.8492 39.2435 51.8769 39.3411 51.9322 39.4258C51.9908 39.5072 52.082 39.5804 52.2057 39.6455C52.3294 39.7074 52.4889 39.7627 52.6842 39.8115L53.5289 40.002C54.0367 40.1224 54.4143 40.2965 54.6617 40.5244C54.9124 40.7523 55.0377 41.0583 55.0377 41.4424V41.4521C55.0377 41.7777 54.9417 42.0658 54.7496 42.3164C54.5576 42.5638 54.2955 42.7575 53.9635 42.8975C53.6347 43.0342 53.2587 43.1025 52.8355 43.1025Z" fill="#404040"/>
</svg>
