<svg width="73" height="54" viewBox="0 0 73 54" fill="none" xmlns="http://www.w3.org/2000/svg">
<mask id="mask0_1660_901" style="mask-type:alpha" maskUnits="userSpaceOnUse" x="24" y="8" width="25" height="24">
<rect x="24.3999" y="8" width="24" height="24" fill="#D9D9D9"/>
</mask>
<g mask="url(#mask0_1660_901)">
<path d="M32.9943 21.1558L34.4558 22.1385L36.4 21.1538L38.3443 22.1385L39.775 21.1865L38.7655 19.173C38.7398 19.1218 38.7013 19.0802 38.65 19.048C38.5987 19.016 38.5442 19 38.4865 19H34.2423C34.1846 19 34.1318 19.016 34.0838 19.048C34.0356 19.0802 33.9987 19.1218 33.973 19.173L32.9943 21.1558ZM29.625 28H43.15L40.4443 22.5442L38.4558 23.8615L36.4 22.8463L34.3443 23.8615L32.3155 22.5192L29.625 28ZM27.2078 29.5L32.6155 18.5098C32.7693 18.2084 32.9927 17.9648 33.2855 17.779C33.5785 17.593 33.8974 17.5 34.2423 17.5H35.65V10.5H41.996L41.1213 12.25L41.996 14H37.15V17.5H38.4673C38.8121 17.5 39.1268 17.5904 39.4115 17.7712C39.6962 17.9519 39.9205 18.1929 40.0845 18.4943L45.5923 29.5H27.2078Z" fill="#1C1B1F"/>
</g>
<path d="M26.6246 43.1709C26.1201 43.1709 25.6676 43.0863 25.2672 42.917C24.8668 42.7445 24.525 42.4971 24.2418 42.1748C23.9586 41.8525 23.7405 41.4652 23.5875 41.0127C23.4378 40.557 23.3629 40.0459 23.3629 39.4795V39.4697C23.3629 38.721 23.4964 38.0716 23.7633 37.5215C24.0302 36.9681 24.4078 36.54 24.8961 36.2373C25.3844 35.9346 25.9557 35.7832 26.61 35.7832C27.1438 35.7832 27.6207 35.8776 28.0406 36.0664C28.4605 36.2552 28.8056 36.5205 29.0758 36.8623C29.346 37.2008 29.5234 37.598 29.608 38.0537L29.6129 38.1025H28.5143L28.4996 38.0537C28.3759 37.637 28.1497 37.3164 27.8209 37.0918C27.4954 36.8672 27.0917 36.7549 26.61 36.7549C26.177 36.7549 25.801 36.8656 25.482 37.0869C25.163 37.3083 24.9156 37.6224 24.7398 38.0293C24.5673 38.4329 24.4811 38.9115 24.4811 39.4648V39.4746C24.4811 39.8945 24.5299 40.2721 24.6275 40.6074C24.7285 40.9427 24.8733 41.2292 25.0621 41.4668C25.2509 41.7012 25.4771 41.8818 25.7408 42.0088C26.0045 42.1357 26.3023 42.1992 26.6344 42.1992C27.0185 42.1992 27.3554 42.1243 27.6451 41.9746C27.9381 41.8216 28.166 41.61 28.3287 41.3398C28.4915 41.0697 28.5745 40.7539 28.5777 40.3926L28.5826 40.2363H26.7711V39.3525H29.6666V40.2266C29.6666 40.6725 29.595 41.0762 29.4518 41.4375C29.3085 41.7988 29.1035 42.1097 28.8365 42.3701C28.5696 42.6273 28.249 42.8258 27.8746 42.9658C27.5003 43.1025 27.0836 43.1709 26.6246 43.1709ZM33.2945 43.1025C32.777 43.1025 32.3294 42.9919 31.9518 42.7705C31.5774 42.5492 31.2893 42.2334 31.0875 41.8232C30.8857 41.4098 30.7848 40.9199 30.7848 40.3535V40.3438C30.7848 39.7741 30.8857 39.2842 31.0875 38.874C31.2926 38.4639 31.5823 38.1481 31.9566 37.9268C32.3342 37.7054 32.7802 37.5947 33.2945 37.5947C33.8121 37.5947 34.2581 37.7054 34.6324 37.9268C35.0068 38.1449 35.2949 38.4606 35.4967 38.874C35.7018 39.2842 35.8043 39.7741 35.8043 40.3438V40.3535C35.8043 40.9199 35.7018 41.4098 35.4967 41.8232C35.2949 42.2334 35.0068 42.5492 34.6324 42.7705C34.2613 42.9919 33.8154 43.1025 33.2945 43.1025ZM33.2945 42.2139C33.5973 42.2139 33.8544 42.1406 34.066 41.9941C34.2776 41.8444 34.4387 41.6312 34.5494 41.3545C34.6601 41.0778 34.7154 40.7441 34.7154 40.3535V40.3438C34.7154 39.9499 34.6601 39.6146 34.5494 39.3379C34.4387 39.0612 34.2776 38.8496 34.066 38.7031C33.8544 38.5534 33.5973 38.4785 33.2945 38.4785C32.9918 38.4785 32.7346 38.5534 32.523 38.7031C32.3115 38.8496 32.1487 39.0612 32.0348 39.3379C31.9241 39.6146 31.8688 39.9499 31.8688 40.3438V40.3535C31.8688 40.7441 31.9241 41.0778 32.0348 41.3545C32.1487 41.6312 32.3115 41.8444 32.523 41.9941C32.7346 42.1406 32.9918 42.2139 33.2945 42.2139ZM38.5191 43.0879C38.1839 43.0879 37.8827 43.0244 37.6158 42.8975C37.3521 42.7673 37.1438 42.5833 36.9908 42.3457C36.8378 42.1081 36.7613 41.8298 36.7613 41.5107V41.501C36.7613 41.182 36.8378 40.9102 36.9908 40.6855C37.1471 40.4609 37.3717 40.2852 37.6646 40.1582C37.9609 40.028 38.3189 39.9499 38.7389 39.9238L40.6969 39.8066V40.5537L38.8854 40.6709C38.5208 40.6937 38.2522 40.7718 38.0797 40.9053C37.9072 41.0355 37.8209 41.2194 37.8209 41.457V41.4668C37.8209 41.7077 37.9137 41.8981 38.0992 42.0381C38.2848 42.1748 38.5191 42.2432 38.8023 42.2432C39.066 42.2432 39.3004 42.1911 39.5055 42.0869C39.7138 41.9795 39.8766 41.8363 39.9938 41.6572C40.1109 41.4749 40.1695 41.2699 40.1695 41.042V39.3721C40.1695 39.0791 40.0784 38.8561 39.8961 38.7031C39.7171 38.5469 39.4501 38.4688 39.0953 38.4688C38.7991 38.4688 38.5566 38.5208 38.3678 38.625C38.1822 38.7292 38.0585 38.8757 37.9967 39.0645L37.9869 39.0791H36.9664L36.9713 39.0449C37.0136 38.752 37.1292 38.498 37.318 38.2832C37.51 38.0651 37.7607 37.8958 38.0699 37.7754C38.3824 37.6549 38.7389 37.5947 39.1393 37.5947C39.5852 37.5947 39.9628 37.6663 40.2721 37.8096C40.5846 37.9495 40.8206 38.153 40.9801 38.4199C41.1428 38.6836 41.2242 39.001 41.2242 39.3721V43H40.1695V42.248H40.0914C39.9872 42.4271 39.857 42.5801 39.7008 42.707C39.5445 42.8307 39.3671 42.9251 39.1686 42.9902C38.97 43.0553 38.7535 43.0879 38.5191 43.0879ZM42.7672 43V35.6172H43.8268V43H42.7672ZM47.3326 43.1025C46.9062 43.1025 46.5351 43.0407 46.2193 42.917C45.9036 42.79 45.6529 42.6159 45.4674 42.3945C45.2818 42.1699 45.1728 41.9095 45.1402 41.6133V41.6035H46.2047V41.6133C46.273 41.8118 46.4033 41.973 46.5953 42.0967C46.7874 42.2204 47.0413 42.2822 47.357 42.2822C47.5751 42.2822 47.7656 42.2513 47.9283 42.1895C48.0943 42.1276 48.2245 42.0413 48.3189 41.9307C48.4133 41.82 48.4605 41.693 48.4605 41.5498V41.54C48.4605 41.374 48.3938 41.234 48.2604 41.1201C48.1269 41.0062 47.9072 40.9134 47.6012 40.8418L46.7516 40.6465C46.4195 40.5716 46.1445 40.4691 45.9264 40.3389C45.7083 40.2087 45.5471 40.0492 45.443 39.8604C45.3388 39.6683 45.2867 39.4437 45.2867 39.1865V39.1816C45.2867 38.8724 45.3746 38.599 45.5504 38.3613C45.7262 38.1204 45.9687 37.9333 46.2779 37.7998C46.5904 37.6631 46.9469 37.5947 47.3473 37.5947C47.7509 37.5947 48.1025 37.6582 48.402 37.7852C48.7047 37.9089 48.9439 38.0814 49.1197 38.3027C49.2955 38.5208 49.3997 38.7747 49.4322 39.0645V39.0693H48.4166V39.0596C48.3678 38.874 48.2506 38.7194 48.065 38.5957C47.8827 38.472 47.6419 38.4102 47.3424 38.4102C47.1503 38.4102 46.9794 38.4411 46.8297 38.5029C46.6799 38.5615 46.5611 38.6445 46.4732 38.752C46.3886 38.8561 46.3463 38.9798 46.3463 39.123V39.1328C46.3463 39.2435 46.374 39.3411 46.4293 39.4258C46.4879 39.5072 46.579 39.5804 46.7027 39.6455C46.8264 39.7074 46.9859 39.7627 47.1813 39.8115L48.026 40.002C48.5338 40.1224 48.9114 40.2965 49.1588 40.5244C49.4094 40.7523 49.5348 41.0583 49.5348 41.4424V41.4521C49.5348 41.7777 49.4387 42.0658 49.2467 42.3164C49.0546 42.5638 48.7926 42.7575 48.4605 42.8975C48.1318 43.0342 47.7558 43.1025 47.3326 43.1025Z" fill="#404040"/>
</svg>
