<svg width="73" height="54" viewBox="0 0 73 54" fill="none" xmlns="http://www.w3.org/2000/svg">
<mask id="mask0_1660_888" style="mask-type:alpha" maskUnits="userSpaceOnUse" x="24" y="8" width="25" height="24">
<rect x="24.3999" y="8" width="24" height="24" fill="#D9D9D9"/>
</mask>
<g mask="url(#mask0_1660_888)">
<path d="M30.3999 26.9997H33.7462V21.0575H39.0537V26.9997H42.3999V17.9997L36.3999 13.4805L30.3999 17.9997V26.9997ZM28.8999 28.4997V17.2497L36.3999 11.6055L43.8999 17.2497V28.4997H37.5537V22.5575H35.2462V28.4997H28.8999Z" fill="#1C1B1F"/>
</g>
<path d="M23.109 43V35.9541H24.2027V38.9326H27.816V35.9541H28.9146V43H27.816V39.8799H24.2027V43H23.109ZM32.8111 43.1025C32.2936 43.1025 31.846 42.9919 31.4684 42.7705C31.094 42.5492 30.8059 42.2334 30.6041 41.8232C30.4023 41.4098 30.3014 40.9199 30.3014 40.3535V40.3438C30.3014 39.7741 30.4023 39.2842 30.6041 38.874C30.8092 38.4639 31.0989 38.1481 31.4732 37.9268C31.8508 37.7054 32.2968 37.5947 32.8111 37.5947C33.3287 37.5947 33.7747 37.7054 34.149 37.9268C34.5234 38.1449 34.8115 38.4606 35.0133 38.874C35.2184 39.2842 35.3209 39.7741 35.3209 40.3438V40.3535C35.3209 40.9199 35.2184 41.4098 35.0133 41.8232C34.8115 42.2334 34.5234 42.5492 34.149 42.7705C33.7779 42.9919 33.332 43.1025 32.8111 43.1025ZM32.8111 42.2139C33.1139 42.2139 33.371 42.1406 33.5826 41.9941C33.7942 41.8444 33.9553 41.6312 34.066 41.3545C34.1767 41.0778 34.232 40.7441 34.232 40.3535V40.3438C34.232 39.9499 34.1767 39.6146 34.066 39.3379C33.9553 39.0612 33.7942 38.8496 33.5826 38.7031C33.371 38.5534 33.1139 38.4785 32.8111 38.4785C32.5084 38.4785 32.2512 38.5534 32.0396 38.7031C31.8281 38.8496 31.6653 39.0612 31.5514 39.3379C31.4407 39.6146 31.3854 39.9499 31.3854 40.3438V40.3535C31.3854 40.7441 31.4407 41.0778 31.5514 41.3545C31.6653 41.6312 31.8281 41.8444 32.0396 41.9941C32.2512 42.1406 32.5084 42.2139 32.8111 42.2139ZM36.5807 43V37.6973H37.6402V38.5127H37.7232C37.8404 38.2197 38.0227 37.9935 38.2701 37.834C38.5208 37.6745 38.8202 37.5947 39.1686 37.5947C39.4094 37.5947 39.6259 37.6338 39.818 37.7119C40.01 37.79 40.1744 37.9007 40.3111 38.0439C40.4511 38.1839 40.5602 38.3499 40.6383 38.542H40.7213C40.8092 38.3499 40.9329 38.1839 41.0924 38.0439C41.2519 37.9007 41.4374 37.79 41.649 37.7119C41.8639 37.6338 42.0917 37.5947 42.3326 37.5947C42.6907 37.5947 42.9967 37.6647 43.2506 37.8047C43.5045 37.9414 43.6982 38.14 43.8316 38.4004C43.9651 38.6608 44.0318 38.9749 44.0318 39.3428V43H42.9723V39.5967C42.9723 39.3525 42.9348 39.1507 42.86 38.9912C42.7851 38.8285 42.6712 38.7064 42.5182 38.625C42.3684 38.5436 42.1796 38.5029 41.9518 38.5029C41.7271 38.5029 41.5302 38.555 41.3609 38.6592C41.1949 38.7601 41.0647 38.8968 40.9703 39.0693C40.8792 39.2386 40.8336 39.4307 40.8336 39.6455V43H39.774V39.4893C39.774 39.2874 39.7317 39.1133 39.6471 38.9668C39.5657 38.8171 39.4485 38.7031 39.2955 38.625C39.1425 38.5436 38.9619 38.5029 38.7535 38.5029C38.5419 38.5029 38.3515 38.5583 38.1822 38.6689C38.0162 38.7796 37.8844 38.9294 37.7867 39.1182C37.6891 39.3037 37.6402 39.512 37.6402 39.7432V43H36.5807ZM47.7428 43.1025C47.2252 43.1025 46.7809 42.9919 46.4098 42.7705C46.0387 42.5459 45.7522 42.2285 45.5504 41.8184C45.3518 41.4082 45.2525 40.9232 45.2525 40.3633V40.3584C45.2525 39.805 45.3518 39.3216 45.5504 38.9082C45.7522 38.4948 46.0354 38.1725 46.4 37.9414C46.7678 37.7103 47.1975 37.5947 47.6891 37.5947C48.1839 37.5947 48.6087 37.7054 48.9635 37.9268C49.3216 38.1481 49.5966 38.459 49.7887 38.8594C49.9807 39.2565 50.0768 39.722 50.0768 40.2559V40.627H45.7896V39.8701H49.5494L49.0416 40.5732V40.1484C49.0416 39.7708 48.983 39.4583 48.8658 39.2109C48.7519 38.9603 48.594 38.7731 48.3922 38.6494C48.1904 38.5257 47.9576 38.4639 47.6939 38.4639C47.4303 38.4639 47.1943 38.529 46.9859 38.6592C46.7809 38.7861 46.6181 38.9749 46.4977 39.2256C46.3805 39.4762 46.3219 39.7839 46.3219 40.1484V40.5732C46.3219 40.9215 46.3805 41.2194 46.4977 41.4668C46.6148 41.7142 46.7809 41.903 46.9957 42.0332C47.2138 42.1634 47.471 42.2285 47.7672 42.2285C47.9951 42.2285 48.1904 42.1976 48.3531 42.1357C48.5191 42.0706 48.6542 41.9909 48.7584 41.8965C48.8658 41.8021 48.9391 41.7093 48.9781 41.6182L48.9977 41.5791H50.023L50.0133 41.623C49.9677 41.7988 49.888 41.9746 49.774 42.1504C49.6601 42.3229 49.5087 42.4808 49.3199 42.624C49.1344 42.7673 48.9098 42.8828 48.6461 42.9707C48.3857 43.0586 48.0846 43.1025 47.7428 43.1025Z" fill="#404040"/>
</svg>
