<svg width="73" height="54" viewBox="0 0 73 54" fill="none" xmlns="http://www.w3.org/2000/svg">
<mask id="mask0_1660_906" style="mask-type:alpha" maskUnits="userSpaceOnUse" x="24" y="8" width="25" height="24">
<rect x="24.3999" y="8" width="24" height="24" fill="#D9D9D9"/>
</mask>
<g mask="url(#mask0_1660_906)">
<path d="M30.4229 25.2923C31.2729 24.6616 32.1989 24.1635 33.2009 23.798C34.2027 23.4327 35.2691 23.25 36.3999 23.25C37.5307 23.25 38.5971 23.4327 39.5989 23.798C40.6009 24.1635 41.5269 24.6616 42.3769 25.2923C42.9986 24.6089 43.4912 23.8179 43.8547 22.9192C44.2182 22.0206 44.3999 21.0475 44.3999 20C44.3999 17.7833 43.6207 15.8958 42.0624 14.3375C40.5041 12.7792 38.6166 12 36.3999 12C34.1832 12 32.2957 12.7792 30.7374 14.3375C29.1791 15.8958 28.3999 17.7833 28.3999 20C28.3999 21.0475 28.5817 22.0206 28.9452 22.9192C29.3087 23.8179 29.8012 24.6089 30.4229 25.2923ZM36.4002 20.75C35.4872 20.75 34.7172 20.4367 34.0904 19.81C33.4634 19.1832 33.1499 18.4133 33.1499 17.5003C33.1499 16.5873 33.4632 15.8173 34.0899 15.1905C34.7167 14.5635 35.4867 14.25 36.3997 14.25C37.3127 14.25 38.0826 14.5633 38.7094 15.19C39.3364 15.8168 39.6499 16.5867 39.6499 17.4997C39.6499 18.4127 39.3366 19.1827 38.7099 19.8095C38.0831 20.4365 37.3132 20.75 36.4002 20.75ZM36.3999 29.5C35.0807 29.5 33.8432 29.2519 32.6874 28.7558C31.5316 28.2596 30.5262 27.5839 29.6712 26.7288C28.816 25.8738 28.1403 24.8683 27.6442 23.7125C27.148 22.5567 26.8999 21.3192 26.8999 20C26.8999 18.6808 27.148 17.4433 27.6442 16.2875C28.1403 15.1317 28.816 14.1262 29.6712 13.2712C30.5262 12.4161 31.5316 11.7404 32.6874 11.2443C33.8432 10.7481 35.0807 10.5 36.3999 10.5C37.7191 10.5 38.9566 10.7481 40.1124 11.2443C41.2682 11.7404 42.2737 12.4161 43.1287 13.2712C43.9838 14.1262 44.6595 15.1317 45.1557 16.2875C45.6518 17.4433 45.8999 18.6808 45.8999 20C45.8999 21.3192 45.6518 22.5567 45.1557 23.7125C44.6595 24.8683 43.9838 25.8738 43.1287 26.7288C42.2737 27.5839 41.2682 28.2596 40.1124 28.7558C38.9566 29.2519 37.7191 29.5 36.3999 29.5ZM36.3999 28C37.3024 28 38.1726 27.8548 39.0104 27.5645C39.8482 27.274 40.5922 26.8679 41.2422 26.3462C40.5922 25.8436 39.8579 25.4519 39.0394 25.1712C38.2207 24.8904 37.3409 24.75 36.3999 24.75C35.4589 24.75 34.5775 24.8888 33.7557 25.1663C32.9338 25.4439 32.2012 25.8372 31.5577 26.3462C32.2077 26.8679 32.9516 27.274 33.7894 27.5645C34.6272 27.8548 35.4974 28 36.3999 28ZM36.3999 19.25C36.8974 19.25 37.3134 19.0827 37.6479 18.748C37.9826 18.4135 38.1499 17.9975 38.1499 17.5C38.1499 17.0025 37.9826 16.5865 37.6479 16.252C37.3134 15.9173 36.8974 15.75 36.3999 15.75C35.9024 15.75 35.4864 15.9173 35.1519 16.252C34.8172 16.5865 34.6499 17.0025 34.6499 17.5C34.6499 17.9975 34.8172 18.4135 35.1519 18.748C35.4864 19.0827 35.9024 19.25 36.3999 19.25Z" fill="#1C1B1F"/>
</g>
<path d="M22.1813 40.5928V39.6748H24.1051C24.5803 39.6748 24.9482 39.5527 25.2086 39.3086C25.4723 39.0612 25.6041 38.7194 25.6041 38.2832V38.2734C25.6041 37.8307 25.4723 37.4873 25.2086 37.2432C24.9482 36.999 24.5803 36.877 24.1051 36.877H22.1813V35.9541H24.3785C24.8408 35.9541 25.246 36.0518 25.5943 36.2471C25.9459 36.4391 26.221 36.7093 26.4195 37.0576C26.6181 37.4027 26.7174 37.8047 26.7174 38.2637V38.2734C26.7174 38.7324 26.6181 39.1377 26.4195 39.4893C26.221 39.8376 25.9459 40.1094 25.5943 40.3047C25.246 40.4967 24.8408 40.5928 24.3785 40.5928H22.1813ZM21.6344 43V35.9541H22.7281V43H21.6344ZM28.0064 43V37.6973H29.066V38.498H29.149C29.2434 38.2148 29.4094 37.9951 29.6471 37.8389C29.888 37.6826 30.1842 37.6045 30.5357 37.6045C30.6236 37.6045 30.7099 37.6094 30.7945 37.6191C30.8792 37.6289 30.9475 37.6403 30.9996 37.6533V38.6299C30.9052 38.6104 30.8108 38.5957 30.7164 38.5859C30.6253 38.5762 30.5292 38.5713 30.4283 38.5713C30.1581 38.5713 29.9205 38.6234 29.7154 38.7275C29.5136 38.8317 29.3541 38.9782 29.2369 39.167C29.123 39.3525 29.066 39.5739 29.066 39.8311V43H28.0064ZM34.1295 43.1025C33.6119 43.1025 33.1643 42.9919 32.7867 42.7705C32.4124 42.5492 32.1243 42.2334 31.9225 41.8232C31.7206 41.4098 31.6197 40.9199 31.6197 40.3535V40.3438C31.6197 39.7741 31.7206 39.2842 31.9225 38.874C32.1275 38.4639 32.4173 38.1481 32.7916 37.9268C33.1692 37.7054 33.6152 37.5947 34.1295 37.5947C34.6471 37.5947 35.093 37.7054 35.4674 37.9268C35.8417 38.1449 36.1298 38.4606 36.3316 38.874C36.5367 39.2842 36.6393 39.7741 36.6393 40.3438V40.3535C36.6393 40.9199 36.5367 41.4098 36.3316 41.8232C36.1298 42.2334 35.8417 42.5492 35.4674 42.7705C35.0963 42.9919 34.6503 43.1025 34.1295 43.1025ZM34.1295 42.2139C34.4322 42.2139 34.6894 42.1406 34.901 41.9941C35.1126 41.8444 35.2737 41.6312 35.3844 41.3545C35.4951 41.0778 35.5504 40.7441 35.5504 40.3535V40.3438C35.5504 39.9499 35.4951 39.6146 35.3844 39.3379C35.2737 39.0612 35.1126 38.8496 34.901 38.7031C34.6894 38.5534 34.4322 38.4785 34.1295 38.4785C33.8268 38.4785 33.5696 38.5534 33.358 38.7031C33.1464 38.8496 32.9837 39.0612 32.8697 39.3379C32.7591 39.6146 32.7037 39.9499 32.7037 40.3438V40.3535C32.7037 40.7441 32.7591 41.0778 32.8697 41.3545C32.9837 41.6312 33.1464 41.8444 33.358 41.9941C33.5696 42.1406 33.8268 42.2139 34.1295 42.2139ZM38.275 43V38.5322H37.401V37.6973H38.275V37.1406C38.275 36.7858 38.3336 36.4928 38.4508 36.2617C38.5712 36.0273 38.7535 35.8532 38.9977 35.7393C39.2418 35.6253 39.5494 35.5684 39.9205 35.5684C40.0377 35.5684 40.1467 35.5732 40.2477 35.583C40.3518 35.5895 40.4511 35.6009 40.5455 35.6172V36.3984C40.4967 36.3887 40.4365 36.3822 40.3648 36.3789C40.2965 36.3724 40.2216 36.3691 40.1402 36.3691C39.8473 36.3691 39.6373 36.4391 39.5104 36.5791C39.3867 36.7191 39.3248 36.9225 39.3248 37.1895V37.6973H40.4967V38.5322H39.3346V43H38.275ZM41.7027 43V37.6973H42.7672V43H41.7027ZM42.2398 36.75C42.0576 36.75 41.9013 36.6849 41.7711 36.5547C41.6409 36.4245 41.5758 36.2682 41.5758 36.0859C41.5758 35.9036 41.6409 35.749 41.7711 35.6221C41.9013 35.4919 42.0576 35.4268 42.2398 35.4268C42.4221 35.4268 42.5784 35.4919 42.7086 35.6221C42.8388 35.749 42.9039 35.9036 42.9039 36.0859C42.9039 36.2682 42.8388 36.4245 42.7086 36.5547C42.5784 36.6849 42.4221 36.75 42.2398 36.75ZM44.3541 43V35.6172H45.4137V43H44.3541ZM49.2174 43.1025C48.6998 43.1025 48.2555 42.9919 47.8844 42.7705C47.5133 42.5459 47.2268 42.2285 47.025 41.8184C46.8264 41.4082 46.7271 40.9232 46.7271 40.3633V40.3584C46.7271 39.805 46.8264 39.3216 47.025 38.9082C47.2268 38.4948 47.51 38.1725 47.8746 37.9414C48.2424 37.7103 48.6721 37.5947 49.1637 37.5947C49.6585 37.5947 50.0833 37.7054 50.4381 37.9268C50.7962 38.1481 51.0712 38.459 51.2633 38.8594C51.4553 39.2565 51.5514 39.722 51.5514 40.2559V40.627H47.2643V39.8701H51.024L50.5162 40.5732V40.1484C50.5162 39.7708 50.4576 39.4583 50.3404 39.2109C50.2265 38.9603 50.0686 38.7731 49.8668 38.6494C49.665 38.5257 49.4322 38.4639 49.1686 38.4639C48.9049 38.4639 48.6689 38.529 48.4605 38.6592C48.2555 38.7861 48.0927 38.9749 47.9723 39.2256C47.8551 39.4762 47.7965 39.7839 47.7965 40.1484V40.5732C47.7965 40.9215 47.8551 41.2194 47.9723 41.4668C48.0895 41.7142 48.2555 41.903 48.4703 42.0332C48.6884 42.1634 48.9456 42.2285 49.2418 42.2285C49.4697 42.2285 49.665 42.1976 49.8277 42.1357C49.9938 42.0706 50.1288 41.9909 50.233 41.8965C50.3404 41.8021 50.4137 41.7093 50.4527 41.6182L50.4723 41.5791H51.4977L51.4879 41.623C51.4423 41.7988 51.3626 41.9746 51.2486 42.1504C51.1347 42.3229 50.9833 42.4808 50.7945 42.624C50.609 42.7673 50.3844 42.8828 50.1207 42.9707C49.8603 43.0586 49.5592 43.1025 49.2174 43.1025Z" fill="#404040"/>
</svg>
